<?xml version="1.0" encoding="utf-8"?>
<!-- Generator: Adobe Illustrator 28.3.0, SVG Export Plug-In . SVG Version: 6.00 Build 0)  -->
<svg version="1.1" id="Layer_1" xmlns="http://www.w3.org/2000/svg" xmlns:xlink="http://www.w3.org/1999/xlink" x="0px" y="0px"
	 viewBox="0 0 283.5 141.7" style="enable-background:new 0 0 283.5 141.7;" xml:space="preserve">
<style type="text/css">
	.st0{fill:#FFFFFF;}
</style>
<g>
	<polygon class="st0" points="76.1,90.5 84.4,90.5 84.4,69.4 109,69.4 109,62.2 84.4,62.2 84.4,44.2 111.9,44.2 111.9,36.7 
		76.1,36.7 	"/>
	<rect x="119.4" y="48.6" class="st0" width="7.8" height="41.9"/>
	<polygon class="st0" points="160.8,47.5 160.8,47.5 160.8,47.5 	"/>
	<path class="st0" d="M160.8,47.5c-7.3,0-12.8,4.5-15.2,11.9h-0.8V48.6h-7.6v41.9h7.8V66.5c0-7.2,5-11.9,12.5-11.9
		c6.7,0,9.1,4.3,9.1,10v25.8h7.8V62.8C174.3,53.6,170.1,47.5,160.8,47.5z"/>
	<rect x="183.9" y="48.6" class="st0" width="7.8" height="41.9"/>
	<path class="st0" d="M218.6,84.3L218.6,84.3c-4.7,0-6.5-2.4-6.5-7.2V55.1h13.4v-6.5h-13.4V36.9h-7.8v11.8H198v6.5h6.4v23
		c0,7.8,3.9,13.5,12.6,13.5c3,0,6.1-0.4,9-1.4l-1-6.9C222.9,83.9,220.8,84.2,218.6,84.3z"/>
	<path class="st0" d="M263.1,48.6L258,63.7c-1.8,5.5-4.5,13.2-6.7,19.9h-1.3c-2.2-6.5-5.1-14.5-7.1-20l-5.4-15h-8.6l17.8,41.5
		c-3.3,7.4-6.1,8.7-11,8.7c-1.8,0-3.6-0.2-5.4-0.6l-1.3,7.2c2.1,0.3,4.2,0.5,6.4,0.5c8.9,0,14-4.5,18.4-14.9l17.8-42.4H263.1z"/>
	<path class="st0" d="M119.4,36.7v7.8h7.8C127.2,40.2,123.7,36.7,119.4,36.7z"/>
	<path class="st0" d="M183.9,36.7v7.8h7.8C191.7,40.2,188.2,36.7,183.9,36.7z"/>
</g>
<g>
	<path class="st0" d="M31.8,63.6c0,14.8,12,26.8,26.8,26.8V36.7C43.8,36.7,31.8,48.7,31.8,63.6z"/>
	<path class="st0" d="M18.4,63.6c0,9.6,5.1,18.4,13.4,23.2V40.4C23.5,45.1,18.4,54,18.4,63.6z"/>
	<path class="st0" d="M11.7,63.6c0,6.5,2.4,12.8,6.7,17.6V63.6V45.9C14.1,50.8,11.7,57.1,11.7,63.6z"/>
</g>
</svg>
